# xmcd CD database file
#
# Track frame offsets:
#	150
#	11500
#	28723
#	45225
#	63789
#	78563
#	97001
#	121622
#	139092
#	155245
#	175118
#	196475
#
# Disc length: 2844 seconds
#
# Revision: 3
# Processed by: cddbd v1.5.1PL2 Copyright (c) Steve Scherf et al.
# Submitted via: CDex 1.60beta1
#
DISCID=940b1a0c
DTITLE=ASIAN KUNG-FU GENERATION - ソルファ
DYEAR=2004
DGENRE=JPop
TTITLE0=振動覚
TTITLE1=リライト
TTITLE2=君の街まで
TTITLE3=マイワールド
TTITLE4=夜の向こう
TTITLE5=ラストシーン
TTITLE6=サイレン
TTITLE7=Ｒｅ：Ｒｅ：
TTITLE8=２４時
TTITLE9=真夜中と真昼の夢
TTITLE10=海岸通り
TTITLE11=ループ＆ループ
EXTD=YEAR: 2004
EXTT0=
EXTT1=
EXTT2=
EXTT3=
EXTT4=
EXTT5=
EXTT6=
EXTT7=
EXTT8=
EXTT9=
EXTT10=
EXTT11=
PLAYORDER=
